<svg width="13" height="14" viewBox="0 0 13 14" fill="none" xmlns="http://www.w3.org/2000/svg">
<path d="M6.49993 14C6.38896 14.0011 6.28055 13.9667 6.19049 13.9019C5.96408 13.7585 0.650879 10.1887 0.650879 5.84905C0.650879 4.29778 1.26712 2.81005 2.36402 1.71315C3.46093 0.616237 4.94866 0 6.49993 0C8.05119 0 9.53892 0.616237 10.6358 1.71315C11.7327 2.81005 12.349 4.29778 12.349 5.84905C12.349 10.1887 7.06596 13.7585 6.80936 13.9019C6.7193 13.9667 6.61089 14.0011 6.49993 14ZM6.49993 1.16981C5.25421 1.1658 4.05781 1.65629 3.17343 2.53361C2.28904 3.41092 1.78894 4.60334 1.78295 5.84905C1.78295 9.0264 5.39804 11.9321 6.49993 12.7396C7.60181 11.9321 11.2169 9.0264 11.2169 5.84905C11.2109 4.60334 10.7108 3.41092 9.82642 2.53361C8.94204 1.65629 7.74564 1.1658 6.49993 1.16981Z" fill="#6C757D"/>
<path d="M6.49979 7.58477C6.0893 7.58477 5.68803 7.46305 5.34672 7.23499C5.00541 7.00694 4.73939 6.6828 4.5823 6.30355C4.42522 5.92431 4.38411 5.507 4.4642 5.1044C4.54428 4.7018 4.74195 4.33199 5.03221 4.04173C5.32247 3.75147 5.69228 3.5538 6.09488 3.47372C6.49748 3.39364 6.91479 3.43474 7.29403 3.59182C7.67327 3.74891 7.99742 4.01493 8.22547 4.35624C8.45353 4.69755 8.57525 5.09882 8.57525 5.50931C8.57525 6.05975 8.35659 6.58766 7.96736 6.97688C7.57814 7.36611 7.05023 7.58477 6.49979 7.58477ZM6.49979 4.56591C6.3132 4.56591 6.1308 4.62124 5.97566 4.7249C5.82052 4.82856 5.69961 4.9759 5.6282 5.14829C5.5568 5.32067 5.53812 5.51035 5.57452 5.69335C5.61092 5.87635 5.70077 6.04445 5.8327 6.17639C5.96464 6.30832 6.13274 6.39817 6.31574 6.43457C6.49874 6.47098 6.68842 6.45229 6.86081 6.38089C7.03319 6.30949 7.18053 6.18857 7.28419 6.03343C7.38785 5.87829 7.44318 5.69589 7.44318 5.50931C7.44318 5.2591 7.34379 5.01915 7.16687 4.84223C6.98995 4.66531 6.74999 4.56591 6.49979 4.56591Z" fill="#6C757D"/>
</svg>
